# xmcd
#
# Track frame offsets: 
#        150
#        22547
#        41996
#        63824
#        83852
#        104551
#        122914
#        145628
#        167662
#        190492
#        206268
#        223475
#
# Disc length: 3265 seconds
#
# Revision: 0
# Processed by: cddbd v1.5.2PL0 Copyright (c) Steve Scherf et al.
# Submitted via: ExactAudioCopyFreeDBPlugin 1.0
#
DISCID=aa0cbf0c
DTITLE=Maggie Jane - Every Waiting
DYEAR=2011
DGENRE=Blues
TTITLE0=Every Waiting
TTITLE1=Just For Me
TTITLE2=Dance On The Moon
TTITLE3=A Moment With You
TTITLE4=How Could I Ever Forget
TTITLE5=One Simple Wish
TTITLE6=Still Love You
TTITLE7=Take Off
TTITLE8=Fallen Leaves
TTITLE9=Right Here
TTITLE10=Precious Pearl
TTITLE11=Natural High
EXTD=
EXTT0=
EXTT1=
EXTT2=
EXTT3=
EXTT4=
EXTT5=
EXTT6=
EXTT7=
EXTT8=
EXTT9=
EXTT10=
EXTT11=
PLAYORDER=
